/* XPM */
static char *_5a70a24b2c84282916099dfbdfc3611IXxwk2xb8MG01fh0[] = {
/* columns rows colors chars-per-pixel */
"32 32 4 1 ",
"  c None",
". c black",
"X c #FC9838",
"o c #FCBCB0",
/* pixels */
"          ............          ",
"          ............          ",
"      ......oooooo........      ",
"      ......oooooo........      ",
"    ....ooooXXXXXXXXXX......    ",
"    ....ooooXXXXXXXXXX......    ",
"    ..ooXXXXoooooo..XXXX....    ",
"    ..ooXXXXoooooo..XXXX....    ",
"  ....ooXXXXooXXXX..XXXX......  ",
"  ....ooXXXXooXXXX..XXXX......  ",
"  ..ooXXXXXXooXXXX..XXXXXX....  ",
"  ..ooXXXXXXooXXXX..XXXXXX....  ",
"  ..ooXXXXXXooXXXX..XXXXXX....  ",
"  ..ooXXXXXXooXXXX..XXXXXX....  ",
"  ..ooXXXXXXooXXXX..XXXXXX....  ",
"  ..ooXXXXXXooXXXX..XXXXXX....  ",
"  ..ooXXXXXXooXXXX..XXXXXX....  ",
"  ..ooXXXXXXooXXXX..XXXXXX....  ",
"  ..ooXXXXXXooXXXX..XXXXXX....  ",
"  ..ooXXXXXXooXXXX..XXXXXX....  ",
"  ..ooXXXXXXooXXXX..XXXXXX....  ",
"  ..ooXXXXXXooXXXX..XXXXXX....  ",
"  ....ooXXXXooXXXX..XXXX......  ",
"  ....ooXXXXooXXXX..XXXX......  ",
"    ..ooXXXX........XXXX....    ",
"    ..ooXXXX........XXXX....    ",
"    ....ooXXXXXXXXXXXX......    ",
"    ....ooXXXXXXXXXXXX......    ",
"      ......XXXXXX........      ",
"      ......XXXXXX........      ",
"          ............          ",
"          ............          "
};
