/* XPM */
static char *result[] = {
/* columns rows colors chars-per-pixel */
"32 32 4 1 ",
"  c black",
". c #FC9838",
"X c #FCBCB0",
"o c None",
/* pixels */
"oooooooooooo        oooooooooooo",
"oooooooooooo        oooooooooooo",
"oooooooooo  XXXX..    oooooooooo",
"oooooooooo  XXXX..    oooooooooo",
"oooooooo  XX........    oooooooo",
"oooooooo  XX........    oooooooo",
"oooooooo  XX..XX  ..    oooooooo",
"oooooooo  XX..XX  ..    oooooooo",
"oooooo  XX....XX  ....    oooooo",
"oooooo  XX....XX  ....    oooooo",
"oooooo  XX....XX  ....    oooooo",
"oooooo  XX....XX  ....    oooooo",
"oooooo  XX....XX  ....    oooooo",
"oooooo  XX....XX  ....    oooooo",
"oooooo  XX....XX  ....    oooooo",
"oooooo  XX....XX  ....    oooooo",
"oooooo  XX....XX  ....    oooooo",
"oooooo  XX....XX  ....    oooooo",
"oooooo  XX....XX  ....    oooooo",
"oooooo  XX....XX  ....    oooooo",
"oooooo  XX....XX  ....    oooooo",
"oooooo  XX....XX  ....    oooooo",
"oooooo  XX....XX  ....    oooooo",
"oooooo  XX....XX  ....    oooooo",
"oooooooo  XX..    ..    oooooooo",
"oooooooo  XX..    ..    oooooooo",
"oooooooo  XX........    oooooooo",
"oooooooo  XX........    oooooooo",
"oooooooooo  XXXX..    oooooooooo",
"oooooooooo  XXXX..    oooooooooo",
"oooooooooooo        oooooooooooo",
"oooooooooooo        oooooooooooo"
};
