/* XPM */
static char *result[] = {
/* columns rows colors chars-per-pixel */
"32 32 4 1 ",
"  c black",
". c #FC9838",
"X c #FCBCB0",
"o c None",
/* pixels */
"oooooooooooooo    oooooooooooooo",
"oooooooooooooo    oooooooooooooo",
"oooooooooooo  XXXX  oooooooooooo",
"oooooooooooo  XXXX  oooooooooooo",
"oooooooooooo  XX..  oooooooooooo",
"oooooooooooo  XX..  oooooooooooo",
"oooooooooo..  XX..  ..oooooooooo",
"oooooooooo..  XX..  ..oooooooooo",
"oooooooooo..  XX..  ..oooooooooo",
"oooooooooo..  XX..  ..oooooooooo",
"oooooooooo..  XX..  ..oooooooooo",
"oooooooooo..  XX..  ..oooooooooo",
"oooooooooo..  XX..  ..oooooooooo",
"oooooooooo..  XX..  ..oooooooooo",
"oooooooooo..  XX..  ..oooooooooo",
"oooooooooo..  XX..  ..oooooooooo",
"oooooooooo..  XX..  ..oooooooooo",
"oooooooooo..  XX..  ..oooooooooo",
"oooooooooo..  XX..  ..oooooooooo",
"oooooooooo..  XX..  ..oooooooooo",
"oooooooooo..  XX..  ..oooooooooo",
"oooooooooo..  XX..  ..oooooooooo",
"oooooooooo..  XX..  ..oooooooooo",
"oooooooooo..  XX..  ..oooooooooo",
"oooooooooo..  XX..  ..oooooooooo",
"oooooooooo..  XX..  ..oooooooooo",
"oooooooooooo  XX..  oooooooooooo",
"oooooooooooo  XX..  oooooooooooo",
"oooooooooooo  XX..  oooooooooooo",
"oooooooooooo  XX..  oooooooooooo",
"oooooooooooooo    oooooooooooooo",
"oooooooooooooo    oooooooooooooo"
};
