/* XPM */
static char *result[] = {
/* columns rows colors chars-per-pixel */
"32 32 3 1 ",
"  c black",
". c #FCBCB0",
"X c None",
/* pixels */
"XXXXXXXXXXXX        XXXXXXXXXXXX",
"XXXXXXXXXXXX        XXXXXXXXXXXX",
"XXXXXXXXXX  ......    XXXXXXXXXX",
"XXXXXXXXXX  ......    XXXXXXXXXX",
"XXXXXXXX  ..........    XXXXXXXX",
"XXXXXXXX  ..........    XXXXXXXX",
"XXXXXXXX  ..........    XXXXXXXX",
"XXXXXXXX  ..........    XXXXXXXX",
"XXXXXX  ..............    XXXXXX",
"XXXXXX  ..............    XXXXXX",
"XXXXXX  ..............    XXXXXX",
"XXXXXX  ..............    XXXXXX",
"XXXXXX  ..............    XXXXXX",
"XXXXXX  ..............    XXXXXX",
"XXXXXX  ..............    XXXXXX",
"XXXXXX  ..............    XXXXXX",
"XXXXXX  ..............    XXXXXX",
"XXXXXX  ..............    XXXXXX",
"XXXXXX  ..............    XXXXXX",
"XXXXXX  ..............    XXXXXX",
"XXXXXX  ..............    XXXXXX",
"XXXXXX  ..............    XXXXXX",
"XXXXXX  ..............    XXXXXX",
"XXXXXX  ..............    XXXXXX",
"XXXXXXXX  ..........    XXXXXXXX",
"XXXXXXXX  ..........    XXXXXXXX",
"XXXXXXXX  ..........    XXXXXXXX",
"XXXXXXXX  ..........    XXXXXXXX",
"XXXXXXXXXX  ......    XXXXXXXXXX",
"XXXXXXXXXX  ......    XXXXXXXXXX",
"XXXXXXXXXXXX        XXXXXXXXXXXX",
"XXXXXXXXXXXX        XXXXXXXXXXXX"
};
