/* XPM */
static char *_0ae83acf6b44f25ec12fc13c994f93eOafLXaPywlbCADGT[] = {
/* columns rows colors chars-per-pixel */
"32 32 4 1 ",
"  c black",
". c #A40000",
"X c #D82800",
"o c #FC9838",
/* pixels */
" oooooo .....o.XX.o..... oooooo ",
" ooXXX. .....o.XX.o..... ooXXX. ",
" ooXXX. ..o..o.XX.o..o.. ooXXX. ",
" ooXXX. .....o.XX.o..... ooXXX. ",
" ooXXX. .....o.XX.o..... ooXXX. ",
" ooXXX. .....o.XX.o..... ooXXX. ",
" ooXXX. ..o..o.XX.o..o.. ooXXX. ",
" ...... .....o.XX.o..... ...... ",
" oooooo .....o    o..... oooooo ",
" ooXXX. ..... oooo ..... ooXXX. ",
" ooXXX. ..o. oo  oo .o.. ooXXX. ",
" ooXXX. .... o XX o .... ooXXX. ",
" ooXXX. .... o XX o .... ooXXX. ",
" ooXXX. .... oo  oo .... ooXXX. ",
" ooXXX. ..o.. oooo ..o.. ooXXX. ",
" ...... .....o    o..... ...... ",
" oooooo .....o.XX.o..... oooooo ",
" ooXXX. .....o.XX.o..... ooXXX. ",
" ooXXX. ..o..o.XX.o..o.. ooXXX. ",
" ooXXX. .....o.XX.o..... ooXXX. ",
" ooXXX. .....o.XX.o..... ooXXX. ",
" ooXXX. .....o.XX.o..... ooXXX. ",
" ooXXX. ..o..o.XX.o..o.. ooXXX. ",
" ...... .....o.XX.o..... ...... ",
" oooooo .....o.XX.o..... oooooo ",
" ooXXX. .....o.XX.o..... ooXXX. ",
" ooXXX. ..o..o.XX.o..o.. ooXXX. ",
" ooXXX. .....o.XX.o..... ooXXX. ",
" ooXXX. .....o.XX.o..... ooXXX. ",
" ooXXX. .....o.XX.o..... ooXXX. ",
" ooXXX. ..o..o.XX.o..o.. ooXXX. ",
" ...... .....o.XX.o..... ...... "
};
