/* XPM */
static char *result[] = {
/* columns rows colors chars-per-pixel */
"32 32 3 1 ",
"  c black",
". c #FCBCB0",
"X c None",
/* pixels */
"XXXXXXXXXX            XXXXXXXXXX",
"XXXXXXXXXX            XXXXXXXXXX",
"XXXXXX      ......        XXXXXX",
"XXXXXX      ......        XXXXXX",
"XXXX    ..............      XXXX",
"XXXX    ..............      XXXX",
"XXXX  ..................    XXXX",
"XXXX  ..................    XXXX",
"XX    ..................      XX",
"XX    ..................      XX",
"XX  ......................    XX",
"XX  ......................    XX",
"XX  ......................    XX",
"XX  ......................    XX",
"XX  ......................    XX",
"XX  ......................    XX",
"XX  ......................    XX",
"XX  ......................    XX",
"XX  ......................    XX",
"XX  ......................    XX",
"XX  ......................    XX",
"XX  ......................    XX",
"XX    ..................      XX",
"XX    ..................      XX",
"XXXX  ..................    XXXX",
"XXXX  ..................    XXXX",
"XXXX    ..............      XXXX",
"XXXX    ..............      XXXX",
"XXXXXX      ......        XXXXXX",
"XXXXXX      ......        XXXXXX",
"XXXXXXXXXX            XXXXXXXXXX",
"XXXXXXXXXX            XXXXXXXXXX"
};
