/* XPM */
static char *_359a57ecfbf4f48fbfc8b08456e7eea5kyb3EvHhJJygALX[] = {
/* columns rows colors chars-per-pixel */
"32 32 4 1 ",
"  c None",
". c black",
"X c #FC9838",
"o c #FCBCB0",
/* pixels */
" .............................. ",
"................................",
"....ooooooooXXXXXXXXoooooooo....",
"....ooooooooXXXXXXXXoooooooo....",
"..ooooooooooooooooXXXXXXoooooo..",
"..ooooooooooooooooXXXXXXoooooo..",
"..XXXX......XXXXXXXXXX....XXoo..",
"..XXXX......XXXXXXXXXX....XXoo..",
"..ooooXXXX........XXXXXX..XXoo..",
"..ooooXXXX........XXXXXX..XXXX..",
"..ooooXXXXXXXXXX..XXXXXX....XX..",
"..ooooXXXXXXXXXX..XXXXXX....XX..",
"..XXXX....XXXXXX....XXXXXX..XX..",
"..XXXX....XXXXXX....XXXXXX..XX..",
"..ooooXX....XXXXXX..XXXXXX..XX..",
"..ooooXX....XXXXXX..XXXXXX..XX..",
"..ooooXXXX....XXXX..XXXXXX..XX..",
"..ooooXXXX....XXXX..XXXXXX..XX..",
"..ooooXXXX....XXXX..XXXXXX..XX..",
"..ooooXXXX....XXXX..XXXXXX..XX..",
"..oooo......XXXX....XXXXXX..XX..",
"..oooo......XXXX....XXXXXX..XX..",
"..XXXX..XXXXXXXX..XXXXXX....XX..",
"..XXXX..XXXXXXXX..XXXXXX....XX..",
"..ooooXXXXXXXXXX..XXXXXX..XXXX..",
"..ooooXXXXXXXXXX..XXXXXX..XXXX..",
"..ooooXXXXXX....XXXXXX....XXXX..",
"..ooooXXXXXX....XXXXXX....XXXX..",
"....ooooXX....XXXX......XXXX....",
"....ooooXX....XXXX......XXXX....",
"................................",
" .............................. "
};
