/* XPM */
static char *result[] = {
/* columns rows colors chars-per-pixel */
"64 64 3 1 ",
"  c #9B8EFF",
". c white",
"X c None",
/* pixels */
"XXXXXXXXXXXXXXXXXXXXXXXXXXXX....    XXXXXXXXXXXXXXXXXXXXXXXXXXXX",
"XXXXXXXXXXXXXXXXXXXXXXXXXXXX....    XXXXXXXXXXXXXXXXXXXXXXXXXXXX",
"XXXXXXXXXXXXXXXXXXXXXXXXXXXX....    XXXXXXXXXXXXXXXXXXXXXXXXXXXX",
"XXXXXXXXXXXXXXXXXXXXXXXXXXXX....    XXXXXXXXXXXXXXXXXXXXXXXXXXXX",
"XXXXXXXXXXXXXXXXXXXXXXXX........        XXXXXXXXXXXXXXXXXXXXXXXX",
"XXXXXXXXXXXXXXXXXXXXXXXX........        XXXXXXXXXXXXXXXXXXXXXXXX",
"XXXXXXXXXXXXXXXXXXXXXXXX........        XXXXXXXXXXXXXXXXXXXXXXXX",
"XXXXXXXXXXXXXXXXXXXXXXXX........        XXXXXXXXXXXXXXXXXXXXXXXX",
"XXXXXXXXXXXXXXXXXXXX............            XXXXXXXXXXXXXXXXXXXX",
"XXXXXXXXXXXXXXXXXXXX............            XXXXXXXXXXXXXXXXXXXX",
"XXXXXXXXXXXXXXXXXXXX............            XXXXXXXXXXXXXXXXXXXX",
"XXXXXXXXXXXXXXXXXXXX............            XXXXXXXXXXXXXXXXXXXX",
"XXXXXXXXXXXXXXXX....    ....    XXXX    XXXX    XXXXXXXXXXXXXXXX",
"XXXXXXXXXXXXXXXX....    ....    XXXX    XXXX    XXXXXXXXXXXXXXXX",
"XXXXXXXXXXXXXXXX....    ....    XXXX    XXXX    XXXXXXXXXXXXXXXX",
"XXXXXXXXXXXXXXXX....    ....    XXXX    XXXX    XXXXXXXXXXXXXXXX",
"XXXXXXXXXXXXXXXX........            XXXX        XXXXXXXXXXXXXXXX",
"XXXXXXXXXXXXXXXX........            XXXX        XXXXXXXXXXXXXXXX",
"XXXXXXXXXXXXXXXX........            XXXX        XXXXXXXXXXXXXXXX",
"XXXXXXXXXXXXXXXX........            XXXX        XXXXXXXXXXXXXXXX",
"XXXXXXXXXXXXXXXX........            XXXX        XXXXXXXXXXXXXXXX",
"XXXXXXXXXXXXXXXX........            XXXX        XXXXXXXXXXXXXXXX",
"XXXXXXXXXXXXXXXX........            XXXX        XXXXXXXXXXXXXXXX",
"XXXXXXXXXXXXXXXX........            XXXX        XXXXXXXXXXXXXXXX",
"XXXXXXXXXXXXXXXX........            XXXX        XXXXXXXXXXXXXXXX",
"XXXXXXXXXXXXXXXX........            XXXX        XXXXXXXXXXXXXXXX",
"XXXXXXXXXXXXXXXX........            XXXX        XXXXXXXXXXXXXXXX",
"XXXXXXXXXXXXXXXX........            XXXX        XXXXXXXXXXXXXXXX",
"XXXXXXXXXXXXXXXX........            XXXX        XXXXXXXXXXXXXXXX",
"XXXXXXXXXXXXXXXX........            XXXX        XXXXXXXXXXXXXXXX",
"XXXXXXXXXXXXXXXX........            XXXX        XXXXXXXXXXXXXXXX",
"XXXXXXXXXXXXXXXX........            XXXX        XXXXXXXXXXXXXXXX",
"XXXXXXXXXXXXXXXX........            XXXX        XXXXXXXXXXXXXXXX",
"XXXXXXXXXXXXXXXX........            XXXX        XXXXXXXXXXXXXXXX",
"XXXXXXXXXXXXXXXX........            XXXX        XXXXXXXXXXXXXXXX",
"XXXXXXXXXXXXXXXX........            XXXX        XXXXXXXXXXXXXXXX",
"XXXXXXXXXXXXXXXX........            XXXX        XXXXXXXXXXXXXXXX",
"XXXXXXXXXXXXXXXX........            XXXX        XXXXXXXXXXXXXXXX",
"XXXXXXXXXXXXXXXX........            XXXX        XXXXXXXXXXXXXXXX",
"XXXXXXXXXXXXXXXX........            XXXX        XXXXXXXXXXXXXXXX",
"XXXXXXXXXXXXXXXX........            XXXX        XXXXXXXXXXXXXXXX",
"XXXXXXXXXXXXXXXX........            XXXX        XXXXXXXXXXXXXXXX",
"XXXXXXXXXXXXXXXX........            XXXX        XXXXXXXXXXXXXXXX",
"XXXXXXXXXXXXXXXX........            XXXX        XXXXXXXXXXXXXXXX",
"XXXXXXXXXXXXXXXX....    ....        XXXX        XXXXXXXXXXXXXXXX",
"XXXXXXXXXXXXXXXX....    ....        XXXX        XXXXXXXXXXXXXXXX",
"XXXXXXXXXXXXXXXX....    ....        XXXX        XXXXXXXXXXXXXXXX",
"XXXXXXXXXXXXXXXX....    ....        XXXX        XXXXXXXXXXXXXXXX",
"XXXXXXXXXXXXXXXX            ....XXXX    XXXX    XXXXXXXXXXXXXXXX",
"XXXXXXXXXXXXXXXX            ....XXXX    XXXX    XXXXXXXXXXXXXXXX",
"XXXXXXXXXXXXXXXX            ....XXXX    XXXX    XXXXXXXXXXXXXXXX",
"XXXXXXXXXXXXXXXX            ....XXXX    XXXX    XXXXXXXXXXXXXXXX",
"XXXXXXXXXXXXXXXXXXXX                        XXXXXXXXXXXXXXXXXXXX",
"XXXXXXXXXXXXXXXXXXXX                        XXXXXXXXXXXXXXXXXXXX",
"XXXXXXXXXXXXXXXXXXXX                        XXXXXXXXXXXXXXXXXXXX",
"XXXXXXXXXXXXXXXXXXXX                        XXXXXXXXXXXXXXXXXXXX",
"XXXXXXXXXXXXXXXXXXXXXXXX                XXXXXXXXXXXXXXXXXXXXXXXX",
"XXXXXXXXXXXXXXXXXXXXXXXX                XXXXXXXXXXXXXXXXXXXXXXXX",
"XXXXXXXXXXXXXXXXXXXXXXXX                XXXXXXXXXXXXXXXXXXXXXXXX",
"XXXXXXXXXXXXXXXXXXXXXXXX                XXXXXXXXXXXXXXXXXXXXXXXX",
"XXXXXXXXXXXXXXXXXXXXXXXXXXXX        XXXXXXXXXXXXXXXXXXXXXXXXXXXX",
"XXXXXXXXXXXXXXXXXXXXXXXXXXXX        XXXXXXXXXXXXXXXXXXXXXXXXXXXX",
"XXXXXXXXXXXXXXXXXXXXXXXXXXXX        XXXXXXXXXXXXXXXXXXXXXXXXXXXX",
"XXXXXXXXXXXXXXXXXXXXXXXXXXXX        XXXXXXXXXXXXXXXXXXXXXXXXXXXX"
};
