/* XPM */
static char *result[] = {
/* columns rows colors chars-per-pixel */
"64 64 4 1 ",
"  c #C84C0C",
". c #FC9838",
"X c #80D010",
"o c None",
/* pixels */
"ooooooooooooooooooooXXXXXXXXXXXXXXXXXXXXXXXXoooooooooooooooooooo",
"ooooooooooooooooooooXXXXXXXXXXXXXXXXXXXXXXXXoooooooooooooooooooo",
"ooooooooooooooooooooXXXXXXXXXXXXXXXXXXXXXXXXoooooooooooooooooooo",
"ooooooooooooooooooooXXXXXXXXXXXXXXXXXXXXXXXXoooooooooooooooooooo",
"ooooooooooooooooXXXXXXXXXXXXXXXXXXXXXXXXXXXXXXXXoooooooooooooooo",
"ooooooooooooooooXXXXXXXXXXXXXXXXXXXXXXXXXXXXXXXXoooooooooooooooo",
"ooooooooooooooooXXXXXXXXXXXXXXXXXXXXXXXXXXXXXXXXoooooooooooooooo",
"ooooooooooooooooXXXXXXXXXXXXXXXXXXXXXXXXXXXXXXXXoooooooooooooooo",
"oooooooo....ooooXXXX                        XXXXoooo....oooooooo",
"oooooooo....ooooXXXX                        XXXXoooo....oooooooo",
"oooooooo....ooooXXXX                        XXXXoooo....oooooooo",
"oooooooo....ooooXXXX                        XXXXoooo....oooooooo",
"oooooooo....oooo                                oooo....oooooooo",
"oooooooo....oooo                                oooo....oooooooo",
"oooooooo....oooo                                oooo....oooooooo",
"oooooooo....oooo                                oooo....oooooooo",
"oooooooo........    ....XXXX........XXXX....    ........oooooooo",
"oooooooo........    ....XXXX........XXXX....    ........oooooooo",
"oooooooo........    ....XXXX........XXXX....    ........oooooooo",
"oooooooo........    ....XXXX........XXXX....    ........oooooooo",
"oooooooo........    ....    ........    ....    ........oooooooo",
"oooooooo........    ....    ........    ....    ........oooooooo",
"oooooooo........    ....    ........    ....    ........oooooooo",
"oooooooo........    ....    ........    ....    ........oooooooo",
"oooooooooooo........................................    oooooooo",
"oooooooooooo........................................    oooooooo",
"oooooooooooo........................................    oooooooo",
"oooooooooooo........................................    oooooooo",
"ooooooooooooXXXXXXXX........        ........XXXXXXXX    oooooooo",
"ooooooooooooXXXXXXXX........        ........XXXXXXXX    oooooooo",
"ooooooooooooXXXXXXXX........        ........XXXXXXXX    oooooooo",
"ooooooooooooXXXXXXXX........        ........XXXXXXXX    oooooooo",
"oooo                    ................XXXXXXXX            oooo",
"oooo                    ................XXXXXXXX            oooo",
"oooo                    ................XXXXXXXX            oooo",
"oooo                    ................XXXXXXXX            oooo",
"        ....                XXXXXXXXXXXXXXXXXXXX....        oooo",
"        ....                XXXXXXXXXXXXXXXXXXXX....        oooo",
"        ....                XXXXXXXXXXXXXXXXXXXX....        oooo",
"        ....                XXXXXXXXXXXXXXXXXXXX....        oooo",
"    ............        ....        XXXXXXXX............    oooo",
"    ............        ....        XXXXXXXX............    oooo",
"    ............        ....        XXXXXXXX............    oooo",
"    ............        ....        XXXXXXXX............    oooo",
"        ....            ....XXXX                ............oooo",
"        ....            ....XXXX                ............oooo",
"        ....            ....XXXX                ............oooo",
"        ....            ....XXXX                ............oooo",
"        ....            ....        XXXXXXXXXXXXXXXX....oooooooo",
"        ....            ....        XXXXXXXXXXXXXXXX....oooooooo",
"        ....            ....        XXXXXXXXXXXXXXXX....oooooooo",
"        ....            ....        XXXXXXXXXXXXXXXX....oooooooo",
"                        ....XXXXXXXXXXXXXXXXXXXXoooooooooooooooo",
"                        ....XXXXXXXXXXXXXXXXXXXXoooooooooooooooo",
"                        ....XXXXXXXXXXXXXXXXXXXXoooooooooooooooo",
"                        ....XXXXXXXXXXXXXXXXXXXXoooooooooooooooo",
"oooo....................    oooooooo            oooooooooooooooo",
"oooo....................    oooooooo            oooooooooooooooo",
"oooo....................    oooooooo            oooooooooooooooo",
"oooo....................    oooooooo            oooooooooooooooo",
"oooooooooooooooo            oooooooooooooooooooooooooooooooooooo",
"oooooooooooooooo            oooooooooooooooooooooooooooooooooooo",
"oooooooooooooooo            oooooooooooooooooooooooooooooooooooo",
"oooooooooooooooo            oooooooooooooooooooooooooooooooooooo"
};
