/* XPM */
static char *result[] = {
/* columns rows colors chars-per-pixel */
"64 64 4 1 ",
"  c black",
". c #00A800",
"X c #2038EC",
"o c None",
/* pixels */
"oooooooooooooooooooooooooooooooooooooooooooooooooooooooooooooooo",
"oooooooooooooooooooooooooooooooooooooooooooooooooooooooooooooooo",
"oooooooooooooooooooooooooooooooooooooooooooooooooooooooooooooooo",
"oooooooooooooooooooooooooooooooooooooooooooooooooooooooooooooooo",
"oooooooooooooooo....oooo....            oooooooooooooooooooooooo",
"oooooooooooooooo....oooo....            oooooooooooooooooooooooo",
"oooooooooooooooo....oooo....            oooooooooooooooooooooooo",
"oooooooooooooooo....oooo....            oooooooooooooooooooooooo",
"oooooooo....oooo....................                oooooooooooo",
"oooooooo....oooo....................                oooooooooooo",
"oooooooo....oooo....................                oooooooooooo",
"oooooooo....oooo....................                oooooooooooo",
"oooooooo........    ....................        ....    oooooooo",
"oooooooo........    ....................        ....    oooooooo",
"oooooooo........    ....................        ....    oooooooo",
"oooooooo........    ....................        ....    oooooooo",
"oooo........................................            oooooooo",
"oooo........................................            oooooooo",
"oooo........................................            oooooooo",
"oooo........................................            oooooooo",
"oooo....................    ............    ....            oooo",
"oooo....................    ............    ....            oooo",
"oooo....................    ............    ....            oooo",
"oooo....................    ............    ....            oooo",
"........................................                oooooooo",
"........................................                oooooooo",
"........................................                oooooooo",
"........................................                oooooooo",
"........    ................................                oooo",
"........    ................................                oooo",
"........    ................................                oooo",
"........    ................................                oooo",
"oooo............................    ........        ....    oooo",
"oooo............................    ........        ....    oooo",
"oooo............................    ........        ....    oooo",
"oooo............................    ........        ....    oooo",
"................    ........................                oooo",
"................    ........................                oooo",
"................    ........................                oooo",
"................    ........................                oooo",
"....................................                    oooooooo",
"....................................                    oooooooo",
"....................................                    oooooooo",
"....................................                    oooooooo",
"........    ............................    ....        oooooooo",
"........    ............................    ....        oooooooo",
"........    ............................    ....        oooooooo",
"........    ............................    ....        oooooooo",
"oooo........................                        oooooooooooo",
"oooo........................                        oooooooooooo",
"oooo........................                        oooooooooooo",
"oooo........................                        oooooooooooo",
"oooooooooooo........XXXX....XXXX        ....oooooooooooooooooooo",
"oooooooooooo........XXXX....XXXX        ....oooooooooooooooooooo",
"oooooooooooo........XXXX....XXXX        ....oooooooooooooooooooo",
"oooooooooooo........XXXX....XXXX        ....oooooooooooooooooooo",
"oooooooooooooooo    XXXXXXXXXXXXXXXXXXXX                        ",
"oooooooooooooooo    XXXXXXXXXXXXXXXXXXXX                        ",
"oooooooooooooooo    XXXXXXXXXXXXXXXXXXXX                        ",
"oooooooooooooooo    XXXXXXXXXXXXXXXXXXXX                        ",
"oooooooooooo                                            oooooooo",
"oooooooooooo                                            oooooooo",
"oooooooooooo                                            oooooooo",
"oooooooooooo                                            oooooooo"
};
